<svg xmlns="http://www.w3.org/2000/svg" viewBox="0 0 100 100">
  <!-- Fire Emoji (🔥) - Matching the stylized design -->
  
  <!-- Outer red flame layer with prominent peak and wispy elements -->
  <path d="M 50 90 
           L 40 82 
           Q 32 70 30 58 
           Q 25 45 28 32 
           Q 30 20 38 12 
           Q 42 8 45 5 
           Q 50 2 55 5 
           Q 58 8 62 12 
           Q 70 20 72 32 
           Q 75 45 70 58 
           Q 68 70 60 82 
           L 50 90 Z" 
        fill="#FF0000"/>
  
  <!-- Wispy element extending left and up -->
  <path d="M 28 32 
           Q 25 25 22 20 
           Q 20 15 22 12 
           Q 24 10 27 12 
           Q 28 15 27 18 
           Q 28 22 30 25 
           Z" 
        fill="#FF4500"/>
  
  <!-- Middle orange flame layer -->
  <path d="M 50 85 
           L 42 78 
           Q 36 68 34 58 
           Q 30 48 32 38 
           Q 34 28 40 20 
           Q 44 16 47 13 
           Q 50 10 53 13 
           Q 56 16 60 20 
           Q 66 28 68 38 
           Q 70 48 66 58 
           Q 64 68 58 78 
           L 50 85 Z" 
        fill="#FF8C42"/>
  
  <!-- Inner bright yellow core (teardrop at base/center) -->
  <path d="M 50 80 
           L 44 75 
           Q 40 68 40 62 
           Q 42 58 45 55 
           Q 50 52 55 55 
           Q 58 58 60 62 
           Q 60 68 56 75 
           L 50 80 Z" 
        fill="#FFD700"/>
</svg>
